<?xml version="1.0" ?><svg viewBox="0 0 64 64" xmlns="http://www.w3.org/2000/svg"><defs><style>.cls-1{fill:#933ec5;}.cls-2{fill:#c2fb3b;}.cls-3{fill:#ffda44;}.cls-4{fill:#d80027;}.cls-5{fill:#ea348b;}.cls-6{fill:#006df0;}.cls-7{fill:#231f20;}</style></defs><title/><g id="holiday-no-food"><path class="cls-1" d="M33,49H49a2,2,0,0,0,0-4H33a2,2,0,0,0,0,4Z"/><rect class="cls-2" height="1" width="16" x="33" y="42"/><path class="cls-2" d="M32.04,33.374l-1.475,1.475a3.975,3.975,0,0,1,1.427-.7Z"/><path class="cls-3" d="M32.872,20.058a.988.988,0,0,0-.269-.741A1,1,0,0,0,31.87,19H16.13a1,1,0,0,0-.733.317.989.989,0,0,0-.269.742L15.312,23H32.688Z"/><path class="cls-4" d="M31,43.556V41.444a3.947,3.947,0,0,1-1.151-5.879L16.978,48.436a.994.994,0,0,0,.9.564H29.556A3.936,3.936,0,0,1,31,43.556Z"/><path class="cls-4" d="M13.132,20.183a3,3,0,0,1,3-3.183H22V13a1,1,0,0,1,.293-.707l5-5,1.414,1.414L24,13.414V17h7.87a3,3,0,0,1,3,3.181l-.5,8.039,16.7-16.7A27.98,27.98,0,0,0,11.52,51.066l3.333-3.334Z"/><polygon class="cls-1" points="32.229 30.357 32.563 25 15.437 25 16.74 45.846 32.229 30.357"/><path class="cls-5" d="M49,36H33a2,2,0,0,0,0,4H49a2,2,0,0,0,0-4Z"/><path class="cls-6" d="M34.177,31.237,34.005,34H49a3.987,3.987,0,0,1,2,7.444v2.112A3.987,3.987,0,0,1,49,51H33a3.976,3.976,0,0,1-1.567-.321A2.939,2.939,0,0,1,30.12,51H17.88a3,3,0,0,1-2.333-1.133L12.934,52.48A27.98,27.98,0,0,0,52.48,12.934Z"/><path class="cls-7" d="M32,2A30,30,0,1,0,62,32,30.034,30.034,0,0,0,32,2Zm0,2a27.889,27.889,0,0,1,19.066,7.52l-16.7,16.7.5-8.039a3,3,0,0,0-3-3.181H24V13.414l4.707-4.707L27.293,7.293l-5,5A1,1,0,0,0,22,13v4H16.13a3,3,0,0,0-3,3.183l1.721,27.549L11.52,51.066A27.98,27.98,0,0,1,32,4ZM31,41.444v2.112A3.936,3.936,0,0,0,29.556,49H17.88a.994.994,0,0,1-.9-.564L29.849,35.565A3.947,3.947,0,0,0,31,41.444ZM31,47a2,2,0,0,1,2-2H49a2,2,0,0,1,0,4H33A2,2,0,0,1,31,47Zm18-4H33V42H49Zm0-3H33a2,2,0,0,1,0-4H49a2,2,0,0,1,0,4ZM31.992,34.144a3.975,3.975,0,0,0-1.427.7l1.475-1.475ZM16.74,45.846,15.437,25H32.563l-.334,5.357ZM15.128,20.059a.989.989,0,0,1,.269-.742A1,1,0,0,1,16.13,19H31.87a1,1,0,0,1,.733.317.988.988,0,0,1,.269.741L32.688,23H15.312ZM32,60a27.889,27.889,0,0,1-19.066-7.52l2.613-2.613A3,3,0,0,0,17.88,51H30.12a2.939,2.939,0,0,0,1.313-.321A3.976,3.976,0,0,0,33,51H49a3.987,3.987,0,0,0,2-7.444V41.444A3.987,3.987,0,0,0,49,34H34.005l.172-2.763,18.3-18.3A27.98,27.98,0,0,1,32,60Z"/></g></svg>