<?xml version="1.0" ?><!DOCTYPE svg  PUBLIC '-//W3C//DTD SVG 1.1//EN'  'http://www.w3.org/Graphics/SVG/1.1/DTD/svg11.dtd'><svg height="300px" id="Layer_1" style="enable-background:new 0 0 300 300;" version="1.1" viewBox="0 0 300 300" width="300px" xml:space="preserve" xmlns="http://www.w3.org/2000/svg" xmlns:xlink="http://www.w3.org/1999/xlink"><style type="text/css">
<![CDATA[
	.st0{fill:#47291A;}
	.st1{fill:#486654;}
	.st2{fill:#159347;}
	.st3{fill:#E5820C;}
	.st4{fill:#E59A2E;}
	.st5{fill:#E5E5E5;}
	.st6{fill:#E8DFE2;}
	.st7{fill:#B22D43;}
	.st8{fill:#EABE96;}
	.st9{fill:#EAE7E1;}
	.st10{fill:#EAE8E9;}
	.st11{fill:#B73753;}
	.st12{fill:#1D1E21;}
	.st13{fill:#EBEDF2;}
	.st14{fill:#1DA1DB;}
	.st15{fill:#EDC4A6;}
	.st16{enable-background:new    ;}
	.st17{fill:#EFBF48;}
	.st18{fill:#563F36;}
	.st19{fill:#BCC2CE;}
	.st20{fill:#8E44AD;}
	.st21{fill:#F5AB35;}
	.st22{fill:#282A2B;}
	.st23{fill:#F89406;}
	.st24{clip-path:url(#SVGID_2_);}
	.st25{clip-path:url(#SVGID_4_);}
	.st26{fill:#93213F;}
	.st27{fill:#2AC669;}
	.st28{fill:#C98C49;}
	.st29{opacity:0.5;}
	.st30{opacity:0.6;}
	.st31{opacity:0.8;}
	.st32{fill:#634A42;}
	.st33{fill:#CC9348;}
	.st34{fill:none;stroke:#1DA1DB;stroke-miterlimit:10;}
	.st35{fill:#331606;}
	.st36{fill:#350619;}
	.st37{fill:#D3DBEF;}
	.st38{fill:#D69A51;}
	.st39{fill:#D6DAE5;}
	.st40{fill:#D8A05D;}
	.st41{clip-path:url(#SVGID_10_);}
	.st42{clip-path:url(#SVGID_12_);}
	.st43{clip-path:url(#SVGID_14_);}
	.st44{clip-path:url(#SVGID_16_);}
	.st45{fill:#0B351E;}
	.st46{fill:#45995B;}
]]>
</style><g><circle class="st33" cx="150" cy="148.184" r="136"/></g><g><path class="st36" d="M150,145.533c-13.563,0-24.56,3.77-24.56,8.418v116.097c1.572,1.413,9.44,4.684,24.56,4.684   s22.988-3.271,24.561-4.684V153.951C174.561,149.303,163.564,145.533,150,145.533z"/></g><g class="st31"><path class="st45" d="M178.722,118.589c-0.078-4.613-2.088-9.187-4.666-13.246c-0.017-0.025-0.032-0.052-0.048-0.077   c-0.036-0.056-0.072-0.111-0.108-0.167c-0.122-0.191-0.246-0.381-0.373-0.568c-3.354-5.052-7.464-9.228-9.539-11.558   c-1.531-1.719-2.256-5.337-2.573-9.074V35.59c1.114-0.382,1.916-1.435,1.916-2.679v-4.828c0-1.242-0.802-2.297-1.916-2.678   c0-1.234,0-2.329,0-3.934c-7.684-0.814-15.144-0.814-22.828,0c0,1.604,0,2.699,0,3.934c-1.113,0.381-1.915,1.436-1.915,2.678v4.828   c0,1.244,0.802,2.297,1.915,2.679v48.015c-0.304,3.841-1.025,7.604-2.598,9.368c-3.856,4.33-14.742,15.03-14.742,25.896h0.001   c-0.141,1.239-0.215,2.501-0.215,3.781v147.988c0,4.695,12.97,8.502,28.968,8.502c15.999,0,28.969-3.807,28.969-8.502V122.649   C178.969,121.272,178.884,119.918,178.722,118.589z"/></g><g class="st31"><path class="st1" d="M174.346,119.122l-0.027-0.228l-0.004-0.23c-0.055-3.198-1.394-6.886-3.993-10.978l-0.135-0.212   c-0.105-0.164-0.212-0.327-0.332-0.506c-2.562-3.859-5.601-7.172-7.819-9.591c-0.503-0.548-0.954-1.041-1.339-1.473   c-2.026-2.274-3.193-5.971-3.674-11.634l-0.017-0.187V32.44l1.916-0.656V29.21l-1.916-0.656v-3.045   c-2.344-0.161-4.66-0.24-7.004-0.24s-4.661,0.079-7.008,0.24v3.045l-0.576,0.197c0.638-0.012,1.276-0.019,1.917-0.019   c2.343,0,4.659,0.079,7.004,0.24v3.045l1.915,0.656v2.574l-1.915,0.657v51.644l0.016,0.186c0.481,5.663,1.648,9.36,3.674,11.634   c0.385,0.433,0.837,0.925,1.34,1.474c2.218,2.419,5.256,5.731,7.818,9.59c0.12,0.179,0.228,0.343,0.332,0.507l0.136,0.212   c2.599,4.092,3.938,7.778,3.992,10.978l0.004,0.229l0.028,0.229c0.142,1.166,0.214,2.353,0.214,3.526v146.4   c3.122-0.892,4.986-1.853,5.668-2.465V122.649C174.561,121.476,174.488,120.289,174.346,119.122z"/></g><g class="st30"><path class="st36" d="M150,145.533c-13.563,0-24.56,3.77-24.56,8.418v116.097c1.572,1.413,9.44,4.684,24.56,4.684   s22.988-3.271,24.561-4.684V153.951C174.561,149.303,163.564,145.533,150,145.533z"/></g></svg>